HIERARCHY
ROOT Hips
{
	OFFSET 0.000000 0.000000 0.000000
	CHANNELS 6 Xposition Yposition Zposition Zrotation Yrotation Xrotation 
	JOINT LowerBack
	{
		OFFSET 0.000000 0.000000 0.000000
		CHANNELS 3 Zrotation Yrotation Xrotation
		JOINT Spine
		{
			OFFSET 0.028270 2.035590 -0.193380
			CHANNELS 3 Zrotation Yrotation Xrotation
			JOINT Spine1
			{
				OFFSET 0.056720 2.048850 -0.042750
				CHANNELS 3 Zrotation Yrotation Xrotation
				JOINT Neck
				{
					OFFSET 0.000000 0.000000 0.000000
					CHANNELS 3 Zrotation Yrotation Xrotation
					JOINT Neck1
					{
						OFFSET -0.054170 1.746240 0.172020
						CHANNELS 3 Zrotation Yrotation Xrotation
						JOINT Head
						{
							OFFSET 0.104070 1.761360 -0.123970
							CHANNELS 3 Zrotation Yrotation Xrotation
							End Site
							{
								OFFSET 0.000000 0.000000 0.000000
							}
						}
					}
				}
				JOINT LeftShoulder
				{
					OFFSET 0.000000 0.000000 0.000000
					CHANNELS 3 Zrotation Yrotation Xrotation
					JOINT LeftArm
					{
						OFFSET 3.362410 1.200890 -0.311210
						CHANNELS 3 Zrotation Yrotation Xrotation
						JOINT LeftForeArm
						{
							OFFSET 4.983000 -0.000000 -0.000000
							CHANNELS 3 Zrotation Yrotation Xrotation
							JOINT LeftHand
							{
								OFFSET 3.483560 -0.000000 -0.000000
								CHANNELS 3 Zrotation Yrotation Xrotation
								JOINT LeftFingerBase
								{
									OFFSET 0.000000 0.000000 0.000000
									CHANNELS 3 Zrotation Yrotation Xrotation
									JOINT LeftHandIndex1
									{
										OFFSET 0.715260 -0.000000 -0.000000
										CHANNELS 3 Zrotation Yrotation Xrotation
										End Site
										{
											OFFSET 0.000000 0.000000 0.000000
										}
									}
								}
								JOINT LThumb
								{
									OFFSET 0.000000 0.000000 0.000000
									CHANNELS 3 Zrotation Yrotation Xrotation
									End Site
									{
										OFFSET 0.000000 0.000000 0.000000
									}
								}
							}
						}
					}
				}
				JOINT RightShoulder
				{
					OFFSET 0.000000 0.000000 0.000000
					CHANNELS 3 Zrotation Yrotation Xrotation
					JOINT RightArm
					{
						OFFSET -3.136600 1.374050 -0.404650
						CHANNELS 3 Zrotation Yrotation Xrotation
						JOINT RightForeArm
						{
							OFFSET -5.241900 -0.000000 -0.000000
							CHANNELS 3 Zrotation Yrotation Xrotation
							JOINT RightHand
							{
								OFFSET -3.444170 -0.000000 -0.000000
								CHANNELS 3 Zrotation Yrotation Xrotation
								JOINT RightFingerBase
								{
									OFFSET 0.000000 0.000000 0.000000
									CHANNELS 3 Zrotation Yrotation Xrotation
									JOINT RightHandIndex1
									{
										OFFSET -0.622530 -0.000000 -0.000000
										CHANNELS 3 Zrotation Yrotation Xrotation
										End Site
										{
											OFFSET 0.000000 0.000000 0.000000
										}
									}
								}
								JOINT RThumb
								{
									OFFSET 0.000000 0.000000 0.000000
									CHANNELS 3 Zrotation Yrotation Xrotation
									End Site
									{
										OFFSET 0.000000 0.000000 0.000000
									}
								}
							}
						}
					}
				}
			}
		}
	}
}
}
MOTION
Frames: 12
Frame Time: 0.008333
1.438319 17.367691 2.028710 -169.121248 -81.893055 -171.833510 0.881418 -1.107710 7.240026 -1.015865 -0.906331 -1.636131 -8.482557 -0.986583 -0.068611 11.787935 4.717224 4.813663 -5.078156 -0.423454 2.937521 0.000000 0.000000 0.000000 -5.673248 -9.252054 2.903553 -56.799514 -30.044906 16.348077 -3.771776 -27.360127 -0.007414 2.977465 0.076613 -0.001701 -0.137631 0.173821 0.000000 0.000000 0.000000 0.000000 0.000000 0.000000 0.000000 23.543905 1.479763 0.487056 63.911409 8.823935 -1.238465 2.819000 23.916627 0.006604 2.160394 8.030226 0.151436 0.025169 -0.070208 0.000000 0.000000 0.000000 0.000000 0.000000 0.000000 0.000000 
1.329503 17.362723 2.022698 -169.363643 -82.054759 -171.586608 0.899850 -1.134494 7.171931 -1.006818 -0.936586 -1.644194 -8.465447 -1.014542 -0.064389 11.985745 4.674472 4.832192 -5.037753 -0.421692 2.946318 0.000000 0.000000 0.000000 -5.595443 -9.297694 2.888628 -56.762054 -30.586359 16.254658 -3.762581 -27.507496 -0.007654 3.028032 0.039357 -0.002896 -0.138762 0.177267 0.000000 0.000000 0.000000 0.000000 0.000000 0.000000 0.000000 23.552839 1.454932 0.491504 63.919136 8.830329 -1.411210 2.815164 23.959655 0.006553 2.169090 8.009232 0.151736 0.024861 -0.070004 0.000000 0.000000 0.000000 0.000000 0.000000 0.000000 0.000000 
1.219790 17.356571 2.015179 -169.730189 -82.223426 -171.198981 0.901054 -1.162716 7.086543 -1.001289 -0.968894 -1.656354 -8.446603 -1.044893 -0.062457 12.176005 4.628053 4.849749 -4.999330 -0.420082 2.954858 0.000000 0.000000 0.000000 -5.500552 -9.354301 2.869647 -56.748242 -31.060813 16.157782 -3.749651 -27.692390 -0.007862 3.078705 -0.010097 -0.004492 -0.139684 0.180617 0.000000 0.000000 0.000000 0.000000 0.000000 0.000000 0.000000 23.562798 1.423628 0.496984 63.931093 8.845589 -1.542377 2.812193 23.985973 0.006514 2.174565 7.993939 0.151835 0.024631 -0.069797 0.000000 0.000000 0.000000 0.000000 0.000000 0.000000 0.000000 
1.109363 17.349182 2.006271 -170.237872 -82.399396 -170.663514 0.886189 -1.193486 6.992485 -0.999091 -1.003927 -1.670560 -8.426604 -1.078129 -0.061579 12.357722 4.584935 4.865587 -4.962385 -0.418556 2.962780 0.000000 0.000000 0.000000 -5.399263 -9.405018 2.849178 -56.748781 -31.490525 16.081737 -3.735213 -27.910244 -0.008046 3.126945 -0.065158 -0.006187 -0.140540 0.183861 0.000000 0.000000 0.000000 0.000000 0.000000 0.000000 0.000000 23.571165 1.395035 0.502286 63.949367 8.862022 -1.647522 2.809445 24.005948 0.006478 2.182738 7.980462 0.152135 0.024401 -0.069574 0.000000 0.000000 0.000000 0.000000 0.000000 0.000000 0.000000 
0.997937 17.340466 1.996036 -170.879146 -82.585794 -169.987394 0.859195 -1.227916 6.890766 -0.999433 -1.042842 -1.686146 -8.406010 -1.115313 -0.059789 12.529698 4.546053 4.878448 -4.926872 -0.417086 2.969734 0.000000 0.000000 0.000000 -5.299157 -9.439049 2.828466 -56.759118 -31.889234 16.044215 -3.720754 -28.156855 -0.008204 3.171361 -0.123535 -0.008081 -0.141420 0.186989 0.000000 0.000000 0.000000 0.000000 0.000000 0.000000 0.000000 23.576816 1.370379 0.506227 63.974347 8.876845 -1.730556 2.806735 24.024749 0.006443 2.195586 7.968012 0.152835 0.024146 -0.069324 0.000000 0.000000 0.000000 0.000000 0.000000 0.000000 0.000000 
0.885609 17.330332 1.984541 -171.660586 -82.785205 -169.170212 0.821640 -1.266559 6.785413 -1.001940 -1.086034 -1.702369 -8.384592 -1.156822 -0.057379 12.691131 4.508302 4.888258 -4.892894 -0.415673 2.975717 0.000000 0.000000 0.000000 -5.199085 -9.460471 2.807267 -56.781115 -32.252592 16.042999 -3.706169 -28.433839 -0.008329 3.209287 -0.183740 -0.009974 -0.142289 0.189988 0.000000 0.000000 0.000000 0.000000 0.000000 0.000000 0.000000 23.579021 1.345760 0.508933 64.005147 8.892152 -1.788050 2.804138 24.042555 0.006410 2.211922 7.957586 0.153835 0.023880 -0.069050 0.000000 0.000000 0.000000 0.000000 0.000000 0.000000 0.000000 
0.772287 17.318707 1.971839 -172.605584 -82.998619 -168.193749 0.772182 -1.309493 6.682317 -1.006855 -1.133279 -1.718748 -8.361522 -1.202561 -0.057363 12.842215 4.471497 4.897717 -4.860372 -0.414334 2.981450 0.000000 0.000000 0.000000 -5.090751 -9.486353 2.784632 -56.822189 -32.559898 16.058804 -3.690019 -28.747423 -0.008413 3.238459 -0.246363 -0.012065 -0.143012 0.192871 0.000000 0.000000 0.000000 0.000000 0.000000 0.000000 0.000000 23.577268 1.319478 0.511716 64.041583 8.906672 -1.820711 2.801578 24.059035 0.006381 2.231547 7.949973 0.155035 0.023601 -0.068765 0.000000 0.000000 0.000000 0.000000 0.000000 0.000000 0.000000 
0.657875 17.305563 1.957983 -173.697934 -83.227663 -167.075530 0.716482 -1.357203 6.582223 -1.013103 -1.185159 -1.734255 -8.337918 -1.252913 -0.056063 12.982324 4.432118 4.903271 -4.829574 -0.413042 2.985968 0.000000 0.000000 0.000000 -4.985226 -9.500021 2.761894 -56.874044 -32.834915 16.115149 -3.674302 -29.087593 -0.008461 3.257947 -0.306245 -0.013955 -0.143720 0.195594 0.000000 0.000000 0.000000 0.000000 0.000000 0.000000 0.000000 23.572287 1.288773 0.513081 64.082211 8.924042 -1.829120 2.799111 24.076650 0.006353 2.254461 7.943286 0.156534 0.023314 -0.068451 0.000000 0.000000 0.000000 0.000000 0.000000 0.000000 0.000000 
0.542397 17.290859 1.943008 -174.959257 -83.471663 -165.798527 0.654070 -1.409109 6.490180 -1.020810 -1.240866 -1.748555 -8.313257 -1.307197 -0.056304 13.112637 4.391260 4.907630 -4.800378 -0.411812 2.989989 0.000000 0.000000 0.000000 -4.876382 -9.516130 2.738432 -56.941905 -33.061327 16.195096 -3.657859 -29.456885 -0.008468 3.266364 -0.363879 -0.015746 -0.144300 0.198165 0.000000 0.000000 0.000000 0.000000 0.000000 0.000000 0.000000 23.564354 1.253808 0.514226 64.126862 8.941084 -1.819914 2.796620 24.096459 0.006327 2.281754 7.936621 0.158335 0.023004 -0.068116 0.000000 0.000000 0.000000 0.000000 0.000000 0.000000 0.000000 
0.425737 17.274573 1.927088 -176.361995 -83.734184 -164.388170 0.592285 -1.465011 6.403433 -1.028381 -1.300573 -1.762456 -8.287589 -1.365698 -0.058559 13.233271 4.349467 4.911532 -4.772585 -0.410645 2.993877 0.000000 0.000000 0.000000 -4.765166 -9.538148 2.714123 -57.028489 -33.237593 16.296897 -3.640692 -29.848901 -0.008427 3.265412 -0.424235 -0.017636 -0.144746 0.200614 0.000000 0.000000 0.000000 0.000000 0.000000 0.000000 0.000000 23.552174 1.214687 0.515247 64.174888 8.954222 -1.802856 2.794394 24.120279 0.006302 2.315822 7.928977 0.160534 0.022670 -0.067761 0.000000 0.000000 0.000000 0.000000 0.000000 0.000000 0.000000 
0.308211 17.256904 1.910088 -177.982067 -84.001015 -162.780067 0.522373 -1.522700 6.334924 -1.038312 -1.361129 -1.772197 -8.263005 -1.424827 -0.059168 13.347055 4.299952 4.910165 -4.747558 -0.409542 2.995867 0.000000 0.000000 0.000000 -4.663929 -9.549412 2.691205 -57.112952 -33.389523 16.437526 -3.624322 -30.263686 -0.008365 3.250012 -0.466159 -0.018822 -0.145143 0.202793 0.000000 0.000000 0.000000 0.000000 0.000000 0.000000 0.000000 23.546011 1.166438 0.515680 64.219170 8.978004 -1.761101 2.791625 24.148611 0.006273 2.348282 7.918360 0.162634 0.022327 -0.067377 0.000000 0.000000 0.000000 0.000000 0.000000 0.000000 0.000000 
0.189419 17.237744 1.892264 -179.735794 -84.282773 -161.043355 0.460142 -1.582082 6.270472 -1.046894 -1.423672 -1.781646 -8.238563 -1.486170 -0.060752 13.453112 4.246179 4.907181 -4.724458 -0.408522 2.997452 0.000000 0.000000 0.000000 -4.567793 -9.566094 2.668122 -57.210154 -33.498328 16.600783 -3.607615 -30.691973 -0.008261 3.225935 -0.508333 -0.020011 -0.145418 0.204822 0.000000 0.000000 0.000000 0.000000 0.000000 0.000000 0.000000 23.539836 1.110678 0.516131 64.261449 9.000731 -1.714796 2.789200 24.182383 0.006246 2.384539 7.905758 0.164934 0.021981 -0.066979 0.000000 0.000000 0.000000 0.000000 0.000000 0.000000 0.000000 
